<?xml version="1.0" encoding="utf-8"?>
<!-- Generator: Adobe Illustrator 23.0.1, SVG Export Plug-In . SVG Version: 6.00 Build 0)  -->
<svg version="1.1" id="Layer_1" xmlns="http://www.w3.org/2000/svg" xmlns:xlink="http://www.w3.org/1999/xlink" x="0px" y="0px"
	 viewBox="0 0 512 512" style="enable-background:new 0 0 512 512;" xml:space="preserve">
<style type="text/css">
	.st0{fill:#FF3F62;}
	.st1{fill:#830018;}
	.st2{fill:#FF0C38;}
</style>
<path class="st0" d="M437,75C388.7,26.6,324.4,0,256,0S123.3,26.6,75,75c-99.8,99.8-99.8,262.2,0,362c48.4,48.4,112.6,75,181,75
	s132.7-26.6,181-75C536.8,337.2,536.8,174.8,437,75z"/>
<path id="SVGCleanerId_0" class="st1" d="M371.2,338.3L288.9,256l82.3-82.3c9.1-9.1,9.1-23.8,0-32.9c-9.1-9.1-23.8-9.1-32.9,0
	L256,223.1l-82.3-82.3c-9.1-9.1-23.8-9.1-32.9,0c-9.1,9.1-9.1,23.8,0,32.9l82.3,82.3l-82.3,82.3c-9.1,9.1-9.1,23.8,0,32.9
	c4.5,4.5,10.5,6.8,16.5,6.8c6,0,11.9-2.3,16.5-6.8l82.3-82.3l82.3,82.3c4.5,4.5,10.5,6.8,16.5,6.8s11.9-2.3,16.5-6.8
	C380.3,362.1,380.3,347.4,371.2,338.3z"/>
<path class="st2" d="M256,0v223.1l82.3-82.3c9.1-9.1,23.8-9.1,32.9,0c9.1,9.1,9.1,23.8,0,32.9L288.9,256l82.3,82.3
	c9.1,9.1,9.1,23.8,0,32.9c-4.5,4.5-10.5,6.8-16.5,6.8s-11.9-2.3-16.5-6.8L256,288.9V512c68.4,0,132.7-26.6,181-75
	c99.8-99.8,99.8-262.2,0-362C388.7,26.6,324.4,0,256,0z"/>
<path id="SVGCleanerId_1" class="st2" d="M173.7,371.2c-4.5,4.5-10.5,6.8-16.5,6.8c-6,0-11.9-2.3-16.5-6.8c-9.1-9.1-9.1-23.8,0-32.9
	l82.3-82.3l-82.3-82.3c-9.1-9.1-9.1-23.8,0-32.9c9.1-9.1,23.8-9.1,32.9,0l82.3,82.3V0C187.6,0,123.3,26.6,75,75
	c-99.8,99.8-99.8,262.2,0,362c48.4,48.4,112.6,75,181,75V288.9L173.7,371.2z"/>
<g>
	<path id="SVGCleanerId_0_1_" class="st1" d="M371.2,338.3L288.9,256l82.3-82.3c9.1-9.1,9.1-23.8,0-32.9c-9.1-9.1-23.8-9.1-32.9,0
		L256,223.1l-82.3-82.3c-9.1-9.1-23.8-9.1-32.9,0c-9.1,9.1-9.1,23.8,0,32.9l82.3,82.3l-82.3,82.3c-9.1,9.1-9.1,23.8,0,32.9
		c4.5,4.5,10.5,6.8,16.5,6.8c6,0,11.9-2.3,16.5-6.8l82.3-82.3l82.3,82.3c4.5,4.5,10.5,6.8,16.5,6.8s11.9-2.3,16.5-6.8
		C380.3,362.1,380.3,347.4,371.2,338.3z"/>
</g>
<g>
	<path id="SVGCleanerId_1_1_" class="st2" d="M173.7,371.2c-4.5,4.5-10.5,6.8-16.5,6.8c-6,0-11.9-2.3-16.5-6.8
		c-9.1-9.1-9.1-23.8,0-32.9l82.3-82.3l-82.3-82.3c-9.1-9.1-9.1-23.8,0-32.9c9.1-9.1,23.8-9.1,32.9,0l82.3,82.3V0
		C187.6,0,123.3,26.6,75,75c-99.8,99.8-99.8,262.2,0,362c48.4,48.4,112.6,75,181,75V288.9L173.7,371.2z"/>
</g>
</svg>
